<?xml version="1.0" encoding="UTF-8" standalone="no"?>
<svg
   xmlns:dc="http://purl.org/dc/elements/1.1/"
   xmlns:cc="http://creativecommons.org/ns#"
   xmlns:rdf="http://www.w3.org/1999/02/22-rdf-syntax-ns#"
   xmlns:svg="http://www.w3.org/2000/svg"
   xmlns="http://www.w3.org/2000/svg"
   xmlns:sodipodi="http://sodipodi.sourceforge.net/DTD/sodipodi-0.dtd"
   xmlns:inkscape="http://www.inkscape.org/namespaces/inkscape"
   width="210mm"
   height="297mm"
   viewBox="0 0 793.70079 1122.5197"
   version="1.1"
   id="svg137"
   sodipodi:docname="icesat2db_logo.svg"
   inkscape:version="0.92.5 (2060ec1f9f, 2020-04-08)">
  <metadata
     id="metadata141">
    <rdf:RDF>
      <cc:Work
         rdf:about="">
        <dc:format>image/svg+xml</dc:format>
        <dc:type
           rdf:resource="http://purl.org/dc/dcmitype/StillImage" />
        <dc:title></dc:title>
      </cc:Work>
    </rdf:RDF>
  </metadata>
  <sodipodi:namedview
     pagecolor="#ffffff"
     bordercolor="#666666"
     borderopacity="1"
     objecttolerance="10"
     gridtolerance="10"
     guidetolerance="10"
     inkscape:pageopacity="0"
     inkscape:pageshadow="2"
     inkscape:window-width="2488"
     inkscape:window-height="1376"
     id="namedview139"
     showgrid="false"
     units="mm"
     inkscape:zoom="1.0205882"
     inkscape:cx="423.07974"
     inkscape:cy="482.28222"
     inkscape:window-x="72"
     inkscape:window-y="27"
     inkscape:window-maximized="1"
     inkscape:current-layer="svg137" />
  <defs
     id="defs5">
    <clipPath
       id="ic">
      <rect
         x="20"
         y="15"
         width="160"
         height="160"
         rx="22"
         id="rect2" />
    </clipPath>
  </defs>
  <!-- Badge background -->
  <rect
     x="158.24524"
     y="518.49255"
     width="195.84856"
     height="195.84856"
     rx="26.929176"
     id="rect7"
     style="fill:#081422;stroke-width:1.2240535" />
  <!-- Stars -->
  <g
     clip-path="url(#ic)"
     id="g31"
     transform="matrix(1.2240535,0,0,1.2240535,133.76417,500.13174)">
    <circle
       cx="36"
       cy="28"
       r="1"
       id="circle9"
       style="opacity:0.5;fill:#ffffff" />
    <circle
       cx="58"
       cy="21"
       r="1.2"
       id="circle11"
       style="opacity:0.4;fill:#ffffff" />
    <circle
       cx="142"
       cy="25"
       r="0.89999998"
       id="circle13"
       style="opacity:0.45;fill:#ffffff" />
    <circle
       cx="163"
       cy="37"
       r="1.1"
       id="circle15"
       style="opacity:0.35;fill:#ffffff" />
    <circle
       cx="39"
       cy="57"
       r="0.80000001"
       id="circle17"
       style="opacity:0.35;fill:#ffffff" />
    <circle
       cx="160"
       cy="62"
       r="0.89999998"
       id="circle19"
       style="opacity:0.3;fill:#ffffff" />
    <circle
       cx="153"
       cy="44"
       r="0.69999999"
       id="circle21"
       style="opacity:0.3;fill:#ffffff" />
    <circle
       cx="32"
       cy="85"
       r="0.69999999"
       id="circle23"
       style="opacity:0.3;fill:#ffffff" />
    <circle
       cx="168"
       cy="90"
       r="0.80000001"
       id="circle25"
       style="opacity:0.3;fill:#ffffff" />
    <circle
       cx="44"
       cy="110"
       r="0.60000002"
       id="circle27"
       style="opacity:0.25;fill:#ffffff" />
    <circle
       cx="156"
       cy="105"
       r="0.60000002"
       id="circle29"
       style="opacity:0.25;fill:#ffffff" />
  </g>
  <!-- Laser beams (behind satellite, 6 beams in 3 pairs — ATLAS instrument) -->
  <g
     clip-path="url(#ic)"
     id="g45"
     transform="matrix(1.2240535,0,0,1.2240535,133.76417,500.13174)">
    <line
       x1="100"
       y1="68"
       x2="62"
       y2="148"
       id="line33"
       style="opacity:0.7;stroke:#2ed97a;stroke-width:0.85000002" />
    <line
       x1="100"
       y1="68"
       x2="71"
       y2="148"
       id="line35"
       style="opacity:0.7;stroke:#2ed97a;stroke-width:0.85000002" />
    <line
       x1="100"
       y1="68"
       x2="93"
       y2="148"
       id="line37"
       style="opacity:0.9;stroke:#3dff8f;stroke-width:1.10000002" />
    <line
       x1="100"
       y1="68"
       x2="107"
       y2="148"
       id="line39"
       style="opacity:0.9;stroke:#3dff8f;stroke-width:1.10000002" />
    <line
       x1="100"
       y1="68"
       x2="129"
       y2="148"
       id="line41"
       style="opacity:0.7;stroke:#2ed97a;stroke-width:0.85000002" />
    <line
       x1="100"
       y1="68"
       x2="138"
       y2="148"
       id="line43"
       style="opacity:0.7;stroke:#2ed97a;stroke-width:0.85000002" />
  </g>
  <!-- Photon return dots (ATL08 photon cloud) -->
  <g
     clip-path="url(#ic)"
     id="g71"
     transform="matrix(1.2240535,0,0,1.2240535,133.76417,500.13174)">
    <circle
       cx="65"
       cy="132"
       r="1.3"
       id="circle47"
       style="opacity:0.65;fill:#3dff8f" />
    <circle
       cx="68"
       cy="110"
       r="1"
       id="circle49"
       style="opacity:0.45;fill:#3dff8f" />
    <circle
       cx="64"
       cy="91"
       r="0.80000001"
       id="circle51"
       style="opacity:0.3;fill:#3dff8f" />
    <circle
       cx="96"
       cy="125"
       r="1.6"
       id="circle53"
       style="opacity:0.8;fill:#3dff8f" />
    <circle
       cx="95"
       cy="105"
       r="1.2"
       id="circle55"
       style="opacity:0.6;fill:#3dff8f" />
    <circle
       cx="94"
       cy="87"
       r="1"
       id="circle57"
       style="opacity:0.4;fill:#3dff8f" />
    <circle
       cx="104"
       cy="130"
       r="1.5"
       id="circle59"
       style="opacity:0.75;fill:#3dff8f" />
    <circle
       cx="106"
       cy="112"
       r="1.1"
       id="circle61"
       style="opacity:0.55;fill:#3dff8f" />
    <circle
       cx="105"
       cy="93"
       r="0.89999998"
       id="circle63"
       style="opacity:0.35;fill:#3dff8f" />
    <circle
       cx="131"
       cy="128"
       r="1.2"
       id="circle65"
       style="opacity:0.65;fill:#3dff8f" />
    <circle
       cx="133"
       cy="108"
       r="0.89999998"
       id="circle67"
       style="opacity:0.45;fill:#3dff8f" />
    <circle
       cx="136"
       cy="90"
       r="0.69999999"
       id="circle69"
       style="opacity:0.3;fill:#3dff8f" />
  </g>
  <!-- Forest silhouette (3 depth layers) -->
  <g
     clip-path="url(#ic)"
     id="g79"
     transform="matrix(1.2240535,0,0,1.2240535,133.76417,500.13174)">
    <path
       d="m 20,175 v -25 c 7,-12 15,-2 23,-15 6,-11 12,1 20,-11 6,-10 12,4 20,-6 6,-8 12,6 18,0 6,6 12,-8 18,0 8,10 14,-4 20,6 8,12 14,0 20,11 6,9 14,3 21,11 v 29 z"
       id="path73"
       inkscape:connector-curvature="0"
       style="fill:#122d1e" />
    <path
       d="m 20,175 v -18 c 10,-9 18,-2 28,-12 8,-9 14,3 22,-5 8,-8 14,4 22,-2 6,6 12,-4 18,2 6,6 14,-4 22,2 8,6 16,-4 24,2 6,6 14,-1 22,4 l 2,4 v 23 z"
       id="path75"
       inkscape:connector-curvature="0"
       style="fill:#1a4d2a" />
    <path
       d="m 20,175 v -12 c 12,-8 22,-1 32,-9 8,-6 18,4 28,-2 8,4 16,-4 24,2 6,4 16,-4 26,2 8,4 18,-4 28,2 8,4 16,-1 22,2 v 15 z"
       id="path77"
       inkscape:connector-curvature="0"
       style="fill:#225e33" />
  </g>
  <!-- Satellite -->
  <g
     clip-path="url(#ic)"
     id="g125"
     transform="matrix(1.2240535,0,0,1.2240535,133.76417,500.13174)">
    <!-- Left solar panel -->
    <rect
       x="40"
       y="46"
       width="32"
       height="16"
       rx="2.5"
       id="rect81"
       style="fill:#1a3968" />
    <rect
       x="41"
       y="47"
       width="30"
       height="14"
       rx="2"
       id="rect83"
       style="fill:#1e44a8" />
    <line
       x1="50"
       y1="47"
       x2="50"
       y2="61"
       id="line85"
       style="stroke:#2e55c8;stroke-width:0.60000002" />
    <line
       x1="59"
       y1="47"
       x2="59"
       y2="61"
       id="line87"
       style="stroke:#2e55c8;stroke-width:0.60000002" />
    <rect
       x="42"
       y="48"
       width="7"
       height="12"
       rx="0.5"
       id="rect89"
       style="opacity:0.5;fill:none;stroke:#3d66d8;stroke-width:0.40000001" />
    <rect
       x="51"
       y="48"
       width="7"
       height="12"
       rx="0.5"
       id="rect91"
       style="opacity:0.5;fill:none;stroke:#3d66d8;stroke-width:0.40000001" />
    <rect
       x="60"
       y="48"
       width="9"
       height="12"
       rx="0.5"
       id="rect93"
       style="opacity:0.5;fill:none;stroke:#3d66d8;stroke-width:0.40000001" />
    <!-- Main body -->
    <rect
       x="74"
       y="38"
       width="52"
       height="28"
       rx="5"
       id="rect95"
       style="fill:#bdc8de" />
    <rect
       x="78"
       y="42"
       width="11"
       height="20"
       rx="2"
       id="rect97"
       style="fill:#7292b5" />
    <rect
       x="91"
       y="40"
       width="18"
       height="24"
       rx="2"
       id="rect99"
       style="fill:#8aa5c2" />
    <rect
       x="111"
       y="42"
       width="11"
       height="20"
       rx="2"
       id="rect101"
       style="fill:#7292b5" />
    <rect
       x="74"
       y="38"
       width="52"
       height="5"
       rx="5"
       id="rect103"
       style="opacity:0.6;fill:#d8e3f0" />
    <!-- ATLAS aperture (532nm green laser) -->
    <circle
       cx="100"
       cy="66"
       r="4.5"
       id="circle105"
       style="fill:#081422" />
    <circle
       cx="100"
       cy="66"
       r="3"
       id="circle107"
       style="opacity:0.85;fill:#3dff8f" />
    <circle
       cx="100"
       cy="66"
       r="1.2"
       id="circle109"
       style="opacity:0.7;fill:#ffffff" />
    <!-- Right solar panel -->
    <rect
       x="128"
       y="46"
       width="32"
       height="16"
       rx="2.5"
       id="rect111"
       style="fill:#1a3968" />
    <rect
       x="129"
       y="47"
       width="30"
       height="14"
       rx="2"
       id="rect113"
       style="fill:#1e44a8" />
    <line
       x1="138"
       y1="47"
       x2="138"
       y2="61"
       id="line115"
       style="stroke:#2e55c8;stroke-width:0.60000002" />
    <line
       x1="147"
       y1="47"
       x2="147"
       y2="61"
       id="line117"
       style="stroke:#2e55c8;stroke-width:0.60000002" />
    <rect
       x="130"
       y="48"
       width="7"
       height="12"
       rx="0.5"
       id="rect119"
       style="opacity:0.5;fill:none;stroke:#3d66d8;stroke-width:0.40000001" />
    <rect
       x="139"
       y="48"
       width="7"
       height="12"
       rx="0.5"
       id="rect121"
       style="opacity:0.5;fill:none;stroke:#3d66d8;stroke-width:0.40000001" />
    <rect
       x="148"
       y="48"
       width="9"
       height="12"
       rx="0.5"
       id="rect123"
       style="opacity:0.5;fill:none;stroke:#3d66d8;stroke-width:0.40000001" />
  </g>
  <!-- Badge border -->
  <rect
     x="158.24524"
     y="518.49255"
     width="195.84856"
     height="195.84856"
     rx="26.929176"
     id="rect127"
     style="opacity:0.12000002;fill:none;stroke:#ffffff;stroke-width:0.9792428" />
  <!-- Wordmark -->
  <text
     x="106.70893"
     y="757.8396"
     font-size="58"
     font-weight="700"
     letter-spacing="-1.5"
     id="text133"
     style="font-weight:700;font-size:58px;font-family:'Courier New', 'Lucida Console', 'DejaVu Sans Mono', monospace;letter-spacing:-1.5">
    <tspan
       id="tspan129"
       style="fill:#0d1f3c">icesat2</tspan>
    <tspan
       id="tspan131"
       style="fill:#17a855">db</tspan>
  </text>
  <!-- Tagline -->
  <text
     x="111.99512"
     y="773.29028"
     font-size="12.5"
     letter-spacing="1.8"
     id="text135"
     style="font-size:12.5px;font-family:'Courier New', 'Lucida Console', monospace;letter-spacing:1.79999995;fill:#4a6080">ICESat-2 ATL08 · TileDB · Python</text>
</svg>
